HIERARCHY
ROOT 0x4F9D
{
	OFFSET 0.000000 0.000000 0.000000
	CHANNELS 6 Xposition Yposition Zposition Xrotation Yrotation Zrotation
	End Site
	{
		OFFSET 0 0 0
	}
}
ROOT 0x686E
{
	OFFSET 0.000000 0.000000 0.000000
	CHANNELS 6 Xposition Yposition Zposition Xrotation Yrotation Zrotation
	End Site
	{
		OFFSET 0 0 0
	}
}
ROOT 0x687A
{
	OFFSET 0.000000 0.000000 0.000000
	CHANNELS 6 Xposition Yposition Zposition Xrotation Yrotation Zrotation
	End Site
	{
		OFFSET 0 0 0
	}
}
ROOT 0x6E0E
{
	OFFSET 0.000000 0.000000 0.000000
	CHANNELS 6 Xposition Yposition Zposition Xrotation Yrotation Zrotation
	End Site
	{
		OFFSET 0 0 0
	}
}
ROOT 0x6E1A
{
	OFFSET 0.000000 0.000000 0.000000
	CHANNELS 6 Xposition Yposition Zposition Xrotation Yrotation Zrotation
	End Site
	{
		OFFSET 0 0 0
	}
}
ROOT 0x91D7
{
	OFFSET 0.000000 0.000000 0.000000
	CHANNELS 3 Xrotation Yrotation Zrotation
	End Site
	{
		OFFSET 0 0 0
	}
}
ROOT 0xB8EC
{
	OFFSET 0.000000 0.000000 0.000000
	CHANNELS 6 Xposition Yposition Zposition Xrotation Yrotation Zrotation
	End Site
	{
		OFFSET 0 0 0
	}
}
ROOT 0xB8EF
{
	OFFSET 0.000000 0.000000 0.000000
	CHANNELS 3 Xrotation Yrotation Zrotation
	End Site
	{
		OFFSET 0 0 0
	}
}
ROOT 0xB8F0
{
	OFFSET 0.000000 0.000000 0.000000
	CHANNELS 3 Xrotation Yrotation Zrotation
	End Site
	{
		OFFSET 0 0 0
	}
}
ROOT chassis
{
	OFFSET 0.000000 0.000000 0.000000
	CHANNELS 6 Xposition Yposition Zposition Xrotation Yrotation Zrotation
	JOINT soft_2
	{
		OFFSET -56.441689 11.529259 -0.000033
		CHANNELS 3 Xrotation Yrotation Zrotation
		JOINT soft_3
		{
			OFFSET 0.000013 -0.000000 12.739814
			CHANNELS 3 Xrotation Yrotation Zrotation
			JOINT soft_6
			{
				OFFSET 2.139547 0.000009 12.505010
				CHANNELS 3 Xrotation Yrotation Zrotation
				JOINT soft_7
				{
					OFFSET 0.000002 -0.000000 5.175319
					CHANNELS 3 Xrotation Yrotation Zrotation
					JOINT soft_8
					{
						OFFSET -0.000000 0.000000 5.269966
						CHANNELS 3 Xrotation Yrotation Zrotation
						JOINT soft_9
						{
							OFFSET 0.000002 0.000000 9.155548
							CHANNELS 3 Xrotation Yrotation Zrotation
							JOINT soft_11
							{
								OFFSET -0.000009 -0.000000 3.405280
								CHANNELS 3 Xrotation Yrotation Zrotation
								JOINT soft_12
								{
									OFFSET 0.000007 0.000000 10.642006
									CHANNELS 3 Xrotation Yrotation Zrotation
									JOINT soft_13
									{
										OFFSET -0.000009 0.000000 5.321798
										CHANNELS 3 Xrotation Yrotation Zrotation
										JOINT soft_14
										{
											OFFSET 0.000006 0.000000 5.373929
											CHANNELS 3 Xrotation Yrotation Zrotation
											End Site
											{
												OFFSET 0 0 0
											}
										}
									}
								}
							}
						}
					}
				}
			}
		}
	}
}
ROOT 0xDADC
{
	OFFSET 0.000000 0.000000 0.000000
	CHANNELS 6 Xposition Yposition Zposition Xrotation Yrotation Zrotation
	End Site
	{
		OFFSET 0 0 0
	}
}
ROOT [tags]
{
	OFFSET 0.000000 0.000000 0.000000
	CHANNELS 3 Xrotation Yrotation Zrotation
	End Site
	{
		OFFSET 0 0 0
	}
}
ROOT [tags]
{
	OFFSET 0.000000 0.000000 0.000000
	CHANNELS 3 Xrotation Yrotation Zrotation
	End Site
	{
		OFFSET 0 0 0
	}
}
MOTION
Frames:    10
Frame Time: 0.033333
-31.46700858 -3.47724341 -33.36303328 -77.31758879 -0.0000239 90.00013732 -33.32815169 -5.15452766 1.1243689 -77.31758879 -0.0000239 90.00013732 -31.46700858 -3.47724341 -33.36303328 -77.31758879 -0.0000239 90.00013732 -33.51401519 -5.00035572 -0.35200764 -104.36850737 -0.0000017 89.99997707 -29.1274414 -3.9735436 34.02476882 -104.36850737 -0.0000017 89.99997707 0 -12.63585851 0 -25.19212723 6.63108775 0 -90 -14.73177529 -0.00006179 0 -49.44005965 0 0 -25.74220086 0 0 0 0 0 0 0 179.99987789 83.31748198 -179.99986263 0 -21.42166709 0 0 26.96467014 0 0 40.16391754 0 0 13.76274396 0 0 -39.46264647 0 0 -7.97487589 0 0 17.71095658 0 0 11.76246262 0 0 20.20887374 0 -29.1274414 -3.9735436 34.02476882 -104.36850737 -0.0000017 89.99997707 0 0 0 0 0 0
-31.46700858 -3.47724341 -33.36303328 -77.31758116 -0.00002219 90.00013732 -33.32815169 -5.15452766 1.1243689 -77.31758116 -0.00002219 90.00013732 -31.46700858 -3.47724341 -33.36303328 -77.31758116 -0.00002219 90.00013732 -33.51401519 -5.00035572 -0.35200764 -104.36850737 -0.0000017 89.99997707 -29.12744331 -3.9735436 34.02476882 -104.36850737 -0.0000017 89.99997707 0 -12.90647312 0 -25.19212723 6.57678413 0 -90 -14.73177529 -0.00006179 0 -50.4593048 0 0 -25.95580097 0 0 0 0 0 0 0 179.99989315 82.75651551 -179.99987789 0 -21.92596622 0 0 27.33075522 0 0 40.48151397 0 0 14.04081249 0 0 -39.93722149 0 0 -8.24448203 0 0 17.9846439 0 0 12.04645919 0 0 20.47849845 0 -29.12744331 -3.9735436 34.02476882 -104.36850737 -0.0000017 89.99997707 0 0 0 0 0 0
-31.46700477 -3.47724341 -33.36303328 -77.31758116 -0.00002219 90.00013732 -33.32815169 -5.15452766 1.1243689 -77.31758116 -0.00002219 90.00013732 -31.46700477 -3.47724341 -33.36303328 -77.31758116 -0.00002219 90.00013732 -33.51401519 -5.00035572 -0.35200764 -104.36850737 -0.0000017 89.99997707 -29.1274414 -3.9735436 34.0247612 -104.36850737 -0.0000017 89.99997707 0 -13.14707755 0 -25.19212723 6.52248144 0 -90 -14.73177529 -0.00006179 0 -51.45436477 0 0 -26.11606407 0 0 0 0 0 0 0 179.99989315 82.23077392 -179.99987789 0 -22.43069838 0 0 27.73044205 0 0 40.7767067 0 0 14.27922153 0 0 -40.36494826 0 0 -8.55907535 0 0 18.25842857 0 0 12.33052729 0 0 20.69427678 0 -29.1274414 -3.9735436 34.0247612 -104.36850737 -0.0000017 89.99997707 0 0 0 0 0 0
-31.46700477 -3.47724341 -33.36302946 -77.31758116 -0.00002219 90.00013732 -33.32815169 -5.15452766 1.1243689 -77.31758116 -0.00002219 90.00013732 -31.46700477 -3.47724341 -33.36302946 -77.31758116 -0.00002219 90.00013732 -33.51401519 -5.00035572 -0.35200764 -104.36850737 0 89.99997707 -29.1274414 -3.9735436 34.0247612 -104.36850737 0 89.99997707 0 -13.41783332 0 -25.19212723 6.4500761 0 -90 -14.73177529 -0.00006179 0 -52.48220824 0 0 -26.27637862 0 0 0 0 0 0 0 179.99990841 81.70708466 -179.99987789 0 -22.91061207 0 0 28.13048553 0 0 41.07220077 0 0 14.55744743 0 0 -40.79326631 0 0 -8.82878111 0 0 18.53232383 0 0 12.65020082 0 0 20.96410938 0 -29.1274414 -3.9735436 34.0247612 -104.36850737 0 89.99997707 0 0 0 0 0 0
-31.46701049 -3.47724389 -33.36303328 -77.31758879 -0.0000239 90.00013732 -33.32815169 -5.15452766 1.1243689 -77.31758879 -0.0000239 90.00013732 -31.46701049 -3.47724389 -33.36303328 -77.31758879 -0.0000239 90.00013732 -33.51401519 -5.00035572 -0.35200764 -104.36850737 -0.0000017 89.99997707 -29.1274414 -3.9735436 34.02476501 -104.36850737 -0.0000017 89.99997707 0 -13.65857217 0 -25.19212723 6.39577149 0 -90 -14.73177529 -0.00006179 0 -53.45715713 0 0 -26.49021529 0 0 0 0 0 0 0 179.99990841 81.18550109 -179.99989315 0 -23.4162197 0 0 28.49749755 0 0 41.34521101 0 0 14.79599954 0 0 -41.22217941 0 0 -9.14350509 0 0 18.8063278 0 0 12.93444153 0 0 21.18006324 0 -29.1274414 -3.9735436 34.02476501 -104.36850737 -0.0000017 89.99997707 0 0 0 0 0 0
-31.46700477 -3.47724317 -33.36303328 -77.31758879 -0.0000239 90.00013732 -33.32815169 -5.15452766 1.1243689 -77.31758879 -0.0000239 90.00013732 -31.46700477 -3.47724317 -33.36303328 -77.31758879 -0.0000239 90.00013732 -33.51401519 -5.00035572 -0.35200764 -104.36850737 -0.0000017 89.99997707 -29.1274414 -3.9735436 34.02476501 -104.36850737 -0.0000017 89.99997707 0 -13.92946621 0 -25.19212723 6.32336758 0 -90 -14.73177529 -0.00006179 0 -54.43627547 0 0 -26.59716415 0 0 0 0 0 0 0 179.99992367 80.66596982 -179.99989315 0 -23.92228504 0 0 28.89821242 0 0 41.59569168 0 0 15.07438468 0 0 -41.60395047 0 0 -9.45829295 0 0 19.0804367 0 0 13.25429916 0 0 21.45010566 0 -29.1274414 -3.9735436 34.02476501 -104.36850737 -0.0000017 89.99997707 0 0 0 0 0 0
-31.46700858 -3.47724341 -33.36303328 -77.31758879 -0.0000239 90.00013732 -33.32815169 -5.15452766 1.1243689 -77.31758879 -0.0000239 90.00013732 -31.46700858 -3.47724341 -33.36303328 -77.31758879 -0.0000239 90.00013732 -33.51401519 -5.00035572 -0.35200764 -104.36850737 -0.00000341 89.9999847 -29.12743949 -3.9735436 34.02476501 -104.36850737 -0.00000341 89.9999847 0 -14.17032909 0 -25.19212723 6.26906347 0 -90 -14.73177529 -0.00006179 0 -55.41974639 0 0 -26.75763894 0 0 0 0 0 0 0 179.99992367 80.14839172 -179.99989315 0 -24.40348052 0 0 29.26584815 0 0 41.86917113 0 0 15.35286044 0 0 -41.98619457 0 0 -9.77315236 0 0 19.3546543 0 0 13.53870677 0 0 21.66623113 0 -29.12743949 -3.9735436 34.02476501 -104.36850737 -0.00000341 89.9999847 0 0 0 0 0 0
-31.46700858 -3.47724341 -33.36303328 -77.31758879 -0.0000239 90.00013732 -33.32815169 -5.15452766 1.1243689 -77.31758879 -0.0000239 90.00013732 -31.46700858 -3.47724341 -33.36303328 -77.31758879 -0.0000239 90.00013732 -33.51401519 -5.00035572 -0.35200764 -104.36850737 -0.0000017 89.99997707 -29.1274414 -3.9735436 34.02476501 -104.36850737 -0.0000017 89.99997707 0 -14.44137 0 -25.19212723 6.19666004 0 -90 -14.73177529 -0.00006179 0 -56.37849425 0 0 -26.8646488 0 0 0 0 0 0 0 179.99992367 79.63273618 -179.99990841 0 -24.91047855 0 0 29.63379094 0 0 42.09725952 0 0 15.59161949 0 0 -42.36891936 0 0 -10.13307475 0 0 19.59849548 0 0 13.85875987 0 0 21.93648716 0 -29.1274414 -3.9735436 34.02476501 -104.36850737 -0.0000017 89.99997707 0 0 0 0 0 0
-31.46700858 -3.47724341 -33.36303328 -77.31758879 -0.00002049 90.00014495 -33.32815169 -5.15452766 1.1243689 -77.31758879 -0.00002049 90.00014495 -31.46700858 -3.47724341 -33.36303328 -77.31758879 -0.00002049 90.00014495 -33.51401519 -5.00035572 -0.35200764 -104.36850737 -0.0000017 89.99997707 -29.1274414 -3.9735436 34.02476501 -104.36850737 -0.0000017 89.99997707 0 -14.71250249 0 -25.19212723 6.14235544 0 -90 -14.73177529 -0.00006179 0 -57.31236265 0 0 -26.97168728 0 0 0 0 0 0 0 179.99993893 79.11909484 -179.99990841 0 -25.39259719 0 0 30.00205612 0 0 42.32553099 0 0 15.87027453 0 0 -42.70422745 0 0 -10.44810199 0 0 19.87293051 0 0 14.17893028 0 0 22.15279197 0 -29.1274414 -3.9735436 34.02476501 -104.36850737 -0.0000017 89.99997707 0 0 0 0 0 0
-31.46700858 -3.47724389 -33.36303328 -77.31758879 -0.0000239 90.00014495 -33.32815169 -5.15452766 1.1243689 -77.31758879 -0.0000239 90.00014495 -31.46700858 -3.47724389 -33.36303328 -77.31758879 -0.0000239 90.00014495 -33.51401519 -5.00035572 -0.35200764 -104.36850737 -0.0000017 89.99997707 -29.12744331 -3.9735436 34.02476501 -104.36850737 -0.0000017 89.99997707 0 -14.95356747 0 -25.19212723 6.06995248 0 -90 -14.73177529 -0.00006179 0 -58.25038146 0 0 -27.02521133 0 0 0 0 0 0 0 179.99993893 78.607254 -179.99990841 0 -25.90056606 0 0 30.37062834 0 0 42.53112411 0 0 16.14900779 0 0 -43.03991317 0 0 -10.80821512 0 0 20.11696243 0 0 14.49920463 0 0 22.42326926 0 -29.12744331 -3.9735436 34.02476501 -104.36850737 -0.0000017 89.99997707 0 0 0 0 0 0
